<svg width="638" height="357" viewBox="0 0 638 357" fill="none" xmlns="http://www.w3.org/2000/svg">
<g clip-path="url(#clip0_626_3793)">
<path d="M592.93 57.6783C559.549 -52.3702 65.4724 32.7112 23.0369 109.85C-40.6937 208.079 80.6534 392.809 242.377 343.752C404.1 294.696 626.312 167.727 592.93 57.6783Z" fill="#4D4D58"/>
<path d="M631.564 151.249C631.564 36.2494 134.063 -25.7505 71.0636 35.7494C-18.4364 111.25 44.0636 323.249 213.064 323.249C382.064 323.249 631.564 266.249 631.564 151.249Z" fill="#37869F"/>
<mask id="path-3-outside-1_626_3793" maskUnits="userSpaceOnUse" x="310.294" y="39.75" width="254" height="254" fill="black">
<rect fill="white" x="310.294" y="39.75" width="254" height="254"/>
<path d="M379.794 285.75H342.889L376.169 94.9649L331.686 124.291L319.164 95.6239L387.043 52.4584H420.323L379.794 285.75ZM556.127 103.862C556.127 110.891 555.358 117.481 553.82 123.632C552.283 129.563 549.647 135.824 545.912 142.414C542.178 148.785 537.235 155.814 531.084 163.503C524.934 170.971 517.245 179.648 508.019 189.534L448.378 253.129H532.732L526.801 285.75H399.611L405.542 251.152L486.271 165.15C492.861 158.34 498.243 152.189 502.417 146.698C506.591 141.206 509.886 136.263 512.302 131.87C514.719 127.257 516.366 123.083 517.245 119.349C518.124 115.394 518.563 111.55 518.563 107.816C518.563 101.226 516.696 95.1846 512.961 89.6928C509.447 84.201 503.406 81.4551 494.838 81.4551C486.711 81.4551 479.901 84.5305 474.409 90.6813C468.917 96.6125 464.963 103.971 462.547 112.758L427.619 106.827C432.891 88.1551 441.568 73.7666 453.65 63.6617C465.952 53.3371 481.329 48.1748 499.781 48.1748C508.788 48.1748 516.806 49.6027 523.835 52.4584C530.865 55.3141 536.686 59.2682 541.299 64.3207C546.132 69.3731 549.756 75.3043 552.173 82.1141C554.809 88.9239 556.127 96.1731 556.127 103.862Z"/>
</mask>
<path d="M379.794 285.75H342.889L376.169 94.9649L331.686 124.291L319.164 95.6239L387.043 52.4584H420.323L379.794 285.75ZM556.127 103.862C556.127 110.891 555.358 117.481 553.82 123.632C552.283 129.563 549.647 135.824 545.912 142.414C542.178 148.785 537.235 155.814 531.084 163.503C524.934 170.971 517.245 179.648 508.019 189.534L448.378 253.129H532.732L526.801 285.75H399.611L405.542 251.152L486.271 165.15C492.861 158.34 498.243 152.189 502.417 146.698C506.591 141.206 509.886 136.263 512.302 131.87C514.719 127.257 516.366 123.083 517.245 119.349C518.124 115.394 518.563 111.55 518.563 107.816C518.563 101.226 516.696 95.1846 512.961 89.6928C509.447 84.201 503.406 81.4551 494.838 81.4551C486.711 81.4551 479.901 84.5305 474.409 90.6813C468.917 96.6125 464.963 103.971 462.547 112.758L427.619 106.827C432.891 88.1551 441.568 73.7666 453.65 63.6617C465.952 53.3371 481.329 48.1748 499.781 48.1748C508.788 48.1748 516.806 49.6027 523.835 52.4584C530.865 55.3141 536.686 59.2682 541.299 64.3207C546.132 69.3731 549.756 75.3043 552.173 82.1141C554.809 88.9239 556.127 96.1731 556.127 103.862Z" fill="#FF7A00"/>
<path d="M379.794 285.75V293.75C383.684 293.75 387.01 290.952 387.676 287.119L379.794 285.75ZM342.889 285.75L335.008 284.375C334.602 286.702 335.245 289.09 336.765 290.898C338.285 292.706 340.527 293.75 342.889 293.75V285.75ZM376.169 94.9649L384.05 96.3397C384.599 93.1948 383.225 90.0249 380.556 88.2746C377.886 86.5243 374.431 86.5287 371.766 88.2858L376.169 94.9649ZM331.686 124.291L324.355 127.493C325.299 129.656 327.15 131.291 329.413 131.961C331.676 132.632 334.119 132.269 336.089 130.97L331.686 124.291ZM319.164 95.6239L314.872 88.8733C311.545 90.989 310.255 95.213 311.833 98.8261L319.164 95.6239ZM387.043 52.4584V44.4584C385.522 44.4584 384.033 44.8918 382.75 45.7078L387.043 52.4584ZM420.323 52.4584L428.205 53.8277C428.609 51.5014 427.965 49.1153 426.445 47.3084C424.925 45.5015 422.685 44.4584 420.323 44.4584V52.4584ZM379.794 277.75H342.889V293.75H379.794V277.75ZM350.77 287.125L384.05 96.3397L368.288 93.5901L335.008 284.375L350.77 287.125ZM371.766 88.2858L327.282 117.612L336.089 130.97L380.573 101.644L371.766 88.2858ZM339.017 121.089L326.496 92.4218L311.833 98.8261L324.355 127.493L339.017 121.089ZM323.457 102.375L391.336 59.209L382.75 45.7078L314.872 88.8733L323.457 102.375ZM387.043 60.4584H420.323V44.4584H387.043V60.4584ZM412.441 51.0891L371.912 284.381L387.676 287.119L428.205 53.8277L412.441 51.0891ZM553.82 123.632L561.564 125.64C561.57 125.617 561.576 125.595 561.582 125.572L553.82 123.632ZM545.912 142.414L552.814 146.46C552.834 146.426 552.853 146.392 552.872 146.358L545.912 142.414ZM531.084 163.503L537.26 168.588C537.284 168.559 537.308 168.53 537.331 168.5L531.084 163.503ZM508.019 189.534L513.854 195.006C513.858 195.002 513.863 194.997 513.867 194.992L508.019 189.534ZM448.378 253.129L442.542 247.656C440.361 249.982 439.769 253.382 441.037 256.308C442.304 259.235 445.189 261.129 448.378 261.129V253.129ZM532.732 253.129L540.603 254.56C541.027 252.226 540.394 249.824 538.874 248.003C537.354 246.181 535.104 245.129 532.732 245.129V253.129ZM526.801 285.75V293.75C530.667 293.75 533.98 290.985 534.672 287.181L526.801 285.75ZM399.611 285.75L391.726 284.398C391.327 286.722 391.975 289.104 393.495 290.907C395.015 292.71 397.253 293.75 399.611 293.75V285.75ZM405.542 251.152L399.709 245.676C398.635 246.82 397.922 248.254 397.657 249.8L405.542 251.152ZM486.271 165.15L480.522 159.587C480.494 159.616 480.466 159.645 480.438 159.675L486.271 165.15ZM512.302 131.87L519.312 135.725C519.338 135.678 519.364 135.63 519.389 135.582L512.302 131.87ZM517.245 119.349L525.032 121.181C525.04 121.149 525.047 121.116 525.055 121.084L517.245 119.349ZM512.961 89.6928L506.223 94.0052C506.263 94.0678 506.304 94.1298 506.346 94.1913L512.961 89.6928ZM474.409 90.6813L480.279 96.1166C480.312 96.0812 480.344 96.0455 480.376 96.0094L474.409 90.6813ZM462.547 112.758L461.207 120.645C465.258 121.333 469.171 118.841 470.26 114.88L462.547 112.758ZM427.619 106.827L419.92 104.653C419.303 106.838 419.643 109.183 420.857 111.102C422.07 113.021 424.041 114.334 426.28 114.714L427.619 106.827ZM453.65 63.6617L458.782 69.7983L458.793 69.7895L453.65 63.6617ZM523.835 52.4584L520.824 59.8701V59.8701L523.835 52.4584ZM541.299 64.3207L535.391 69.7148C535.433 69.7605 535.475 69.8057 535.518 69.8505L541.299 64.3207ZM552.173 82.1141L544.633 84.7894C544.659 84.8606 544.685 84.9315 544.712 85.0021L552.173 82.1141ZM548.127 103.862C548.127 110.307 547.422 116.24 546.059 121.692L561.582 125.572C563.294 118.723 564.127 111.475 564.127 103.862H548.127ZM546.076 121.624C544.75 126.741 542.419 132.351 538.952 138.47L552.872 146.358C556.874 139.297 559.816 132.385 561.564 125.64L546.076 121.624ZM539.011 138.368C535.523 144.318 530.821 151.025 524.837 158.505L537.331 168.5C543.649 160.603 548.832 153.252 552.814 146.46L539.011 138.368ZM524.909 158.417C518.895 165.719 511.324 174.267 502.17 184.075L513.867 194.992C523.166 185.03 530.972 176.224 537.26 168.588L524.909 158.417ZM502.183 184.061L442.542 247.656L454.213 258.601L513.854 195.006L502.183 184.061ZM448.378 261.129H532.732V245.129H448.378V261.129ZM524.861 251.698L518.93 284.319L534.672 287.181L540.603 254.56L524.861 251.698ZM526.801 277.75H399.611V293.75H526.801V277.75ZM407.496 287.102L413.427 252.503L397.657 249.8L391.726 284.398L407.496 287.102ZM411.375 256.627L492.104 170.625L480.438 159.675L399.709 245.676L411.375 256.627ZM492.02 170.713C498.756 163.753 504.364 157.357 508.786 151.538L496.048 141.857C492.122 147.022 486.967 152.927 480.522 159.587L492.02 170.713ZM508.786 151.538C513.116 145.841 516.651 140.563 519.312 135.725L505.293 128.014C503.121 131.964 500.066 136.57 496.048 141.857L508.786 151.538ZM519.389 135.582C522.014 130.57 523.956 125.754 525.032 121.181L509.458 117.516C508.776 120.412 507.423 123.943 505.216 128.158L519.389 135.582ZM525.055 121.084C526.049 116.608 526.563 112.181 526.563 107.816H510.563C510.563 110.92 510.198 114.181 509.436 117.613L525.055 121.084ZM526.563 107.816C526.563 99.6079 524.206 92.0018 519.577 85.1943L506.346 94.1913C509.186 98.3673 510.563 102.843 510.563 107.816H526.563ZM519.7 85.3804C514.262 76.884 505.172 73.4551 494.838 73.4551V89.4551C501.639 89.4551 504.631 91.518 506.223 94.0052L519.7 85.3804ZM494.838 73.4551C484.394 73.4551 475.426 77.5306 468.441 85.3532L480.376 96.0094C484.376 91.5304 489.027 89.4551 494.838 89.4551V73.4551ZM468.539 85.2461C462.07 92.2323 457.546 100.773 454.833 110.637L470.26 114.88C472.38 107.17 475.764 100.993 480.279 96.1166L468.539 85.2461ZM463.886 104.871L428.958 98.9401L426.28 114.714L461.207 120.645L463.886 104.871ZM435.318 109.001C440.255 91.5156 448.195 78.6528 458.782 69.7983L448.518 57.525C434.941 68.8803 425.527 84.7946 419.92 104.653L435.318 109.001ZM458.793 69.7895C469.442 60.8519 482.913 56.1748 499.781 56.1748V40.1748C479.744 40.1748 462.461 45.8223 448.507 57.5339L458.793 69.7895ZM499.781 56.1748C507.945 56.1748 514.912 57.4683 520.824 59.8701L526.846 45.0467C518.699 41.737 509.631 40.1748 499.781 40.1748V56.1748ZM520.824 59.8701C526.871 62.3268 531.665 65.6342 535.391 69.7148L547.207 58.9265C541.707 52.9022 534.858 48.3014 526.846 45.0467L520.824 59.8701ZM535.518 69.8505C539.543 74.0587 542.582 79.008 544.633 84.7894L559.712 79.4388C556.931 71.6006 552.721 64.6876 547.08 58.7909L535.518 69.8505ZM544.712 85.0021C546.973 90.8427 548.127 97.1079 548.127 103.862H564.127C564.127 95.2383 562.645 87.0052 559.633 79.2262L544.712 85.0021Z" fill="#4D4D58" mask="url(#path-3-outside-1_626_3793)"/>
<mask id="path-5-outside-2_626_3793" maskUnits="userSpaceOnUse" x="55.2939" y="102.359" width="270" height="162" fill="black">
<rect fill="white" x="55.2939" y="102.359" width="270" height="162"/>
<path d="M144.8 146.943C144.8 152.068 144.095 156.679 142.686 160.779C141.405 164.75 139.612 168.209 137.306 171.155C135 174.102 132.31 176.6 129.235 178.649C126.289 180.571 123.15 181.98 119.82 182.877V183.261C121.997 183.645 124.239 184.478 126.545 185.759C128.851 187.04 130.901 188.834 132.694 191.14C134.616 193.317 136.153 196.008 137.306 199.21C138.459 202.413 139.035 206.128 139.035 210.355C139.035 217.914 137.818 224.447 135.384 229.955C133.078 235.464 129.94 240.076 125.969 243.791C121.997 247.378 117.386 250.068 112.133 251.861C107.009 253.527 101.693 254.359 96.1842 254.359H62.1724L85.8077 118.312H114.247C118.346 118.312 122.254 118.888 125.969 120.041C129.684 121.066 132.886 122.796 135.576 125.23C138.395 127.536 140.637 130.482 142.302 134.069C143.967 137.656 144.8 141.947 144.8 146.943ZM126.161 210.355C126.161 206.512 125.52 203.246 124.239 200.555C122.958 197.737 121.293 195.431 119.243 193.638C117.193 191.844 114.823 190.563 112.133 189.795C109.571 188.898 106.945 188.449 104.255 188.449H85.8077L76.392 243.214H95.2234C104.319 243.214 111.749 240.396 117.514 234.759C123.278 228.995 126.161 220.86 126.161 210.355ZM131.925 148.481C131.925 141.947 129.94 137.143 125.969 134.069C122.125 130.994 117.129 129.457 110.98 129.457H96.1842L87.7293 178.073H104.831C108.29 178.073 111.621 177.432 114.823 176.151C118.154 174.87 121.037 173.013 123.471 170.579C126.033 168.017 128.082 164.942 129.62 161.355C131.157 157.64 131.925 153.349 131.925 148.481ZM222.128 190.947C222.128 199.018 221.103 207.025 219.054 214.967C217.132 222.91 214.314 230.084 210.599 236.489C206.884 242.766 202.4 247.89 197.148 251.861C191.896 255.704 186.067 257.626 179.662 257.626C171.207 257.626 164.609 254.487 159.869 248.21C155.129 241.805 152.76 233.286 152.76 222.653C152.76 214.583 153.72 206.576 155.642 198.634C157.692 190.563 160.51 183.389 164.097 177.112C167.812 170.707 172.231 165.583 177.356 161.74C182.608 157.768 188.501 155.783 195.034 155.783C203.745 155.783 210.407 158.985 215.019 165.391C219.758 171.796 222.128 180.315 222.128 190.947ZM209.254 191.332C209.254 184.03 208.037 178.137 205.603 173.653C203.169 169.042 199.262 166.736 193.881 166.736C189.398 166.736 185.362 168.593 181.775 172.308C178.316 176.023 175.37 180.699 172.936 186.336C170.502 191.844 168.645 197.865 167.363 204.398C166.082 210.932 165.442 217.017 165.442 222.653C165.442 229.827 166.595 235.592 168.901 239.948C171.335 244.303 175.242 246.481 180.622 246.481C185.234 246.481 189.269 244.687 192.728 241.101C196.315 237.514 199.326 232.966 201.76 227.457C204.194 221.949 206.051 215.992 207.332 209.587C208.613 203.053 209.254 196.968 209.254 191.332ZM246.253 254.359H233.763L259.128 109.088H271.618L246.253 254.359ZM316.932 169.234H300.599L290.03 228.61C289.774 230.019 289.582 231.493 289.454 233.03C289.326 234.439 289.262 235.656 289.262 236.681C289.262 239.884 289.902 242.125 291.183 243.406C292.464 244.559 294.514 245.136 297.332 245.136C298.485 245.136 299.766 245.008 301.176 244.752C302.585 244.367 303.802 243.919 304.826 243.406L303.866 253.591C300.919 255 297.589 255.704 293.874 255.704C287.724 255.704 283.369 254.039 280.807 250.708C278.245 247.378 276.964 243.406 276.964 238.795C276.964 237.77 277.028 236.617 277.156 235.336C277.284 233.927 277.476 232.389 277.732 230.724L288.685 169.234H275.619L277.156 159.049H290.03L294.45 132.916H306.556L302.328 159.049H318.662L316.932 169.234Z"/>
</mask>
<path d="M144.8 146.943C144.8 152.068 144.095 156.679 142.686 160.779C141.405 164.75 139.612 168.209 137.306 171.155C135 174.102 132.31 176.6 129.235 178.649C126.289 180.571 123.15 181.98 119.82 182.877V183.261C121.997 183.645 124.239 184.478 126.545 185.759C128.851 187.04 130.901 188.834 132.694 191.14C134.616 193.317 136.153 196.008 137.306 199.21C138.459 202.413 139.035 206.128 139.035 210.355C139.035 217.914 137.818 224.447 135.384 229.955C133.078 235.464 129.94 240.076 125.969 243.791C121.997 247.378 117.386 250.068 112.133 251.861C107.009 253.527 101.693 254.359 96.1842 254.359H62.1724L85.8077 118.312H114.247C118.346 118.312 122.254 118.888 125.969 120.041C129.684 121.066 132.886 122.796 135.576 125.23C138.395 127.536 140.637 130.482 142.302 134.069C143.967 137.656 144.8 141.947 144.8 146.943ZM126.161 210.355C126.161 206.512 125.52 203.246 124.239 200.555C122.958 197.737 121.293 195.431 119.243 193.638C117.193 191.844 114.823 190.563 112.133 189.795C109.571 188.898 106.945 188.449 104.255 188.449H85.8077L76.392 243.214H95.2234C104.319 243.214 111.749 240.396 117.514 234.759C123.278 228.995 126.161 220.86 126.161 210.355ZM131.925 148.481C131.925 141.947 129.94 137.143 125.969 134.069C122.125 130.994 117.129 129.457 110.98 129.457H96.1842L87.7293 178.073H104.831C108.29 178.073 111.621 177.432 114.823 176.151C118.154 174.87 121.037 173.013 123.471 170.579C126.033 168.017 128.082 164.942 129.62 161.355C131.157 157.64 131.925 153.349 131.925 148.481ZM222.128 190.947C222.128 199.018 221.103 207.025 219.054 214.967C217.132 222.91 214.314 230.084 210.599 236.489C206.884 242.766 202.4 247.89 197.148 251.861C191.896 255.704 186.067 257.626 179.662 257.626C171.207 257.626 164.609 254.487 159.869 248.21C155.129 241.805 152.76 233.286 152.76 222.653C152.76 214.583 153.72 206.576 155.642 198.634C157.692 190.563 160.51 183.389 164.097 177.112C167.812 170.707 172.231 165.583 177.356 161.74C182.608 157.768 188.501 155.783 195.034 155.783C203.745 155.783 210.407 158.985 215.019 165.391C219.758 171.796 222.128 180.315 222.128 190.947ZM209.254 191.332C209.254 184.03 208.037 178.137 205.603 173.653C203.169 169.042 199.262 166.736 193.881 166.736C189.398 166.736 185.362 168.593 181.775 172.308C178.316 176.023 175.37 180.699 172.936 186.336C170.502 191.844 168.645 197.865 167.363 204.398C166.082 210.932 165.442 217.017 165.442 222.653C165.442 229.827 166.595 235.592 168.901 239.948C171.335 244.303 175.242 246.481 180.622 246.481C185.234 246.481 189.269 244.687 192.728 241.101C196.315 237.514 199.326 232.966 201.76 227.457C204.194 221.949 206.051 215.992 207.332 209.587C208.613 203.053 209.254 196.968 209.254 191.332ZM246.253 254.359H233.763L259.128 109.088H271.618L246.253 254.359ZM316.932 169.234H300.599L290.03 228.61C289.774 230.019 289.582 231.493 289.454 233.03C289.326 234.439 289.262 235.656 289.262 236.681C289.262 239.884 289.902 242.125 291.183 243.406C292.464 244.559 294.514 245.136 297.332 245.136C298.485 245.136 299.766 245.008 301.176 244.752C302.585 244.367 303.802 243.919 304.826 243.406L303.866 253.591C300.919 255 297.589 255.704 293.874 255.704C287.724 255.704 283.369 254.039 280.807 250.708C278.245 247.378 276.964 243.406 276.964 238.795C276.964 237.77 277.028 236.617 277.156 235.336C277.284 233.927 277.476 232.389 277.732 230.724L288.685 169.234H275.619L277.156 159.049H290.03L294.45 132.916H306.556L302.328 159.049H318.662L316.932 169.234Z" fill="#FFF963"/>
<path d="M142.686 160.779L137.012 158.828C137 158.864 136.988 158.9 136.976 158.937L142.686 160.779ZM137.306 171.155L132.581 167.457V167.457L137.306 171.155ZM129.235 178.649L132.513 183.675C132.53 183.664 132.547 183.653 132.563 183.642L129.235 178.649ZM119.82 182.877L118.26 177.083C115.64 177.788 113.82 180.164 113.82 182.877H119.82ZM119.82 183.261H113.82C113.82 186.173 115.91 188.664 118.777 189.17L119.82 183.261ZM126.545 185.759L129.459 180.514H129.459L126.545 185.759ZM132.694 191.14L127.958 194.823C128.034 194.921 128.113 195.016 128.195 195.109L132.694 191.14ZM137.306 199.21L131.661 201.243L137.306 199.21ZM135.384 229.955L129.896 227.53C129.88 227.566 129.865 227.602 129.85 227.639L135.384 229.955ZM125.969 243.791L129.99 248.243C130.016 248.22 130.042 248.196 130.068 248.172L125.969 243.791ZM112.133 251.861L113.988 257.568C114.016 257.558 114.044 257.549 114.072 257.539L112.133 251.861ZM62.1724 254.359L56.2609 253.332C55.9578 255.077 56.441 256.867 57.581 258.222C58.721 259.577 60.4015 260.359 62.1724 260.359V254.359ZM85.8077 118.312V112.312C82.8903 112.312 80.3957 114.411 79.8963 117.285L85.8077 118.312ZM125.969 120.041L124.19 125.772C124.251 125.791 124.312 125.808 124.373 125.825L125.969 120.041ZM135.576 125.23L131.551 129.679C131.625 129.746 131.7 129.81 131.777 129.873L135.576 125.23ZM142.302 134.069L147.744 131.542L147.744 131.542L142.302 134.069ZM124.239 200.555L118.777 203.038C118.792 203.071 118.807 203.103 118.822 203.135L124.239 200.555ZM119.243 193.638L123.194 189.122L119.243 193.638ZM112.133 189.795L110.151 195.458C110.261 195.496 110.373 195.532 110.485 195.564L112.133 189.795ZM85.8077 188.449V182.449C82.8863 182.449 80.3895 184.554 79.8945 187.433L85.8077 188.449ZM76.392 243.214L70.4788 242.198C70.179 243.941 70.664 245.728 71.804 247.081C72.944 248.434 74.623 249.214 76.392 249.214V243.214ZM117.514 234.759L121.708 239.049C121.724 239.034 121.74 239.018 121.756 239.002L117.514 234.759ZM125.969 134.069L122.22 138.754C122.245 138.774 122.27 138.794 122.296 138.813L125.969 134.069ZM96.1842 129.457V123.457C93.2672 123.457 90.7728 125.555 90.273 128.429L96.1842 129.457ZM87.7293 178.073L81.818 177.045C81.5146 178.79 81.9975 180.58 83.1376 181.935C84.2776 183.29 85.9582 184.073 87.7293 184.073V178.073ZM114.823 176.151L112.67 170.551C112.645 170.561 112.62 170.571 112.595 170.581L114.823 176.151ZM129.62 161.355L135.134 163.719C135.144 163.696 135.154 163.673 135.164 163.649L129.62 161.355ZM138.8 146.943C138.8 151.522 138.17 155.459 137.012 158.828L148.36 162.729C150.021 157.9 150.8 152.614 150.8 146.943H138.8ZM136.976 158.937C135.887 162.313 134.405 165.127 132.581 167.457L142.031 174.853C144.819 171.291 146.924 167.187 148.397 162.621L136.976 158.937ZM132.581 167.457C130.664 169.907 128.443 171.966 125.907 173.657L132.563 183.642C136.176 181.233 139.336 178.296 142.031 174.853L132.581 167.457ZM125.958 173.624C123.529 175.207 120.969 176.354 118.26 177.083L121.379 188.671C125.332 187.606 129.048 185.934 132.513 183.675L125.958 173.624ZM113.82 182.877V183.261H125.82V182.877H113.82ZM118.777 189.17C120.186 189.419 121.799 189.986 123.631 191.004L129.459 180.514C126.68 178.97 123.809 177.872 120.862 177.352L118.777 189.17ZM123.631 191.004C125.158 191.853 126.607 193.086 127.958 194.823L137.43 187.456C135.194 184.581 132.544 182.228 129.459 180.514L123.631 191.004ZM128.195 195.109C129.537 196.631 130.721 198.632 131.661 201.243L142.951 197.178C141.585 193.383 139.694 190.004 137.193 187.17L128.195 195.109ZM131.661 201.243C132.53 203.657 133.035 206.66 133.035 210.355H145.035C145.035 205.596 144.388 201.169 142.951 197.178L131.661 201.243ZM133.035 210.355C133.035 217.285 131.918 222.954 129.896 227.53L140.872 232.38C143.718 225.94 145.035 218.543 145.035 210.355H133.035ZM129.85 227.639C127.839 232.443 125.163 236.328 121.87 239.409L130.068 248.172C134.716 243.823 138.318 238.485 140.919 232.272L129.85 227.639ZM121.947 239.338C118.602 242.359 114.706 244.643 110.194 246.183L114.072 257.539C120.065 255.493 125.393 252.396 129.99 248.243L121.947 239.338ZM110.279 246.155C105.767 247.621 101.077 248.359 96.1842 248.359V260.359C102.308 260.359 108.251 259.432 113.988 257.568L110.279 246.155ZM96.1842 248.359H62.1724V260.359H96.1842V248.359ZM68.0838 255.386L91.7192 119.339L79.8963 117.285L56.2609 253.332L68.0838 255.386ZM85.8077 124.312H114.247V112.312H85.8077V124.312ZM114.247 124.312C117.776 124.312 121.081 124.807 124.19 125.772L127.747 114.311C123.426 112.97 118.917 112.312 114.247 112.312V124.312ZM124.373 125.825C127.243 126.617 129.599 127.912 131.551 129.679L139.602 120.78C136.174 117.679 132.125 115.516 127.564 114.257L124.373 125.825ZM131.777 129.873C133.836 131.558 135.542 133.757 136.86 136.596L147.744 131.542C145.731 127.207 142.953 123.513 139.376 120.586L131.777 129.873ZM136.86 136.596C138.074 139.211 138.8 142.597 138.8 146.943H150.8C150.8 141.297 149.86 136.101 147.744 131.542L136.86 136.596ZM132.161 210.355C132.161 205.869 131.416 201.67 129.656 197.976L118.822 203.135C119.625 204.821 120.161 207.155 120.161 210.355H132.161ZM129.701 198.073C128.115 194.583 125.969 191.55 123.194 189.122L115.292 198.153C116.617 199.312 117.801 200.891 118.777 203.038L129.701 198.073ZM123.194 189.122C120.46 186.73 117.299 185.03 113.782 184.025L110.485 195.564C112.348 196.096 113.927 196.958 115.292 198.153L123.194 189.122ZM114.115 184.131C110.922 183.014 107.626 182.449 104.255 182.449V194.449C106.264 194.449 108.22 194.782 110.151 195.458L114.115 184.131ZM104.255 182.449H85.8077V194.449H104.255V182.449ZM79.8945 187.433L70.4788 242.198L82.3053 244.231L91.721 189.466L79.8945 187.433ZM76.392 249.214H95.2234V237.214H76.392V249.214ZM95.2234 249.214C105.669 249.214 114.676 245.926 121.708 239.049L113.319 230.469C108.822 234.866 102.969 237.214 95.2234 237.214V249.214ZM121.756 239.002C128.945 231.813 132.161 221.971 132.161 210.355H120.161C120.161 219.749 117.611 226.176 113.271 230.517L121.756 239.002ZM137.925 148.481C137.925 140.699 135.502 133.862 129.642 129.325L122.296 138.813C124.378 140.425 125.925 143.196 125.925 148.481H137.925ZM129.717 129.384C124.567 125.264 118.144 123.457 110.98 123.457V135.457C116.115 135.457 119.684 136.725 122.22 138.754L129.717 129.384ZM110.98 123.457H96.1842V135.457H110.98V123.457ZM90.273 128.429L81.818 177.045L93.6406 179.101L102.096 130.485L90.273 128.429ZM87.7293 184.073H104.831V172.073H87.7293V184.073ZM104.831 184.073C109.051 184.073 113.138 183.288 117.052 181.722L112.595 170.581C110.103 171.577 107.529 172.073 104.831 172.073V184.073ZM116.977 181.751C121.062 180.18 124.664 177.871 127.713 174.821L119.228 166.336C117.409 168.155 115.246 169.56 112.67 170.551L116.977 181.751ZM127.713 174.821C130.855 171.679 133.32 167.953 135.134 163.719L124.105 158.992C122.845 161.932 121.21 164.354 119.228 166.336L127.713 174.821ZM135.164 163.649C137.058 159.071 137.925 153.974 137.925 148.481H125.925C125.925 152.723 125.256 156.209 124.076 159.061L135.164 163.649ZM219.054 214.967L213.244 213.468C213.237 213.497 213.229 213.527 213.222 213.556L219.054 214.967ZM210.599 236.489L215.762 239.545C215.771 239.53 215.78 239.514 215.789 239.499L210.599 236.489ZM197.148 251.861L200.691 256.704C200.716 256.685 200.741 256.666 200.767 256.647L197.148 251.861ZM159.869 248.21L155.046 251.779C155.058 251.795 155.069 251.811 155.081 251.826L159.869 248.21ZM155.642 198.634L149.827 197.157C149.821 197.179 149.815 197.201 149.81 197.223L155.642 198.634ZM164.097 177.112L158.907 174.102C158.9 174.113 158.894 174.124 158.887 174.135L164.097 177.112ZM177.356 161.74L180.956 166.54C180.962 166.535 180.968 166.53 180.974 166.526L177.356 161.74ZM215.018 165.391L210.149 168.896C210.165 168.918 210.18 168.939 210.195 168.96L215.018 165.391ZM205.603 173.653L200.296 176.454C200.307 176.475 200.318 176.495 200.33 176.516L205.603 173.653ZM181.775 172.308L177.459 168.141C177.434 168.167 177.409 168.193 177.384 168.22L181.775 172.308ZM172.936 186.336L178.424 188.761C178.431 188.745 178.438 188.73 178.444 188.714L172.936 186.336ZM167.363 204.398L161.476 203.244L167.363 204.398ZM168.901 239.948L163.598 242.755C163.619 242.795 163.641 242.835 163.663 242.875L168.901 239.948ZM192.728 241.101L188.486 236.858C188.46 236.884 188.434 236.91 188.409 236.936L192.728 241.101ZM201.76 227.457L207.248 229.882L201.76 227.457ZM207.332 209.587L213.216 210.763C213.217 210.756 213.219 210.749 213.22 210.741L207.332 209.587ZM216.128 190.947C216.128 198.504 215.17 206.007 213.244 213.468L224.863 216.466C227.037 208.042 228.128 199.532 228.128 190.947H216.128ZM213.222 213.556C211.422 220.995 208.806 227.621 205.409 233.478L215.789 239.499C219.822 232.546 222.842 224.824 224.886 216.378L213.222 213.556ZM205.435 233.433C202.075 239.111 198.095 243.623 193.529 247.075L200.767 256.647C206.705 252.157 211.693 246.421 215.762 239.545L205.435 233.433ZM193.605 247.019C189.363 250.123 184.771 251.626 179.662 251.626V263.626C187.363 263.626 194.428 261.286 200.691 256.704L193.605 247.019ZM179.662 251.626C172.925 251.626 168.169 249.244 164.658 244.595L155.081 251.826C161.05 259.731 169.489 263.626 179.662 263.626V251.626ZM164.692 244.641C160.936 239.566 158.76 232.427 158.76 222.653H146.76C146.76 234.145 149.323 244.045 155.046 251.779L164.692 244.641ZM158.76 222.653C158.76 215.064 159.662 207.531 161.474 200.045L149.81 197.223C147.778 205.622 146.76 214.102 146.76 222.653H158.76ZM161.457 200.111C163.393 192.487 166.025 185.831 169.306 180.089L158.887 174.135C154.995 180.948 151.99 188.639 149.827 197.157L161.457 200.111ZM169.287 180.122C172.66 174.307 176.569 169.829 180.956 166.54L173.756 156.94C167.894 161.336 162.964 167.107 158.907 174.102L169.287 180.122ZM180.974 166.526C185.194 163.335 189.818 161.783 195.034 161.783V149.783C187.184 149.783 180.022 152.201 173.737 156.954L180.974 166.526ZM195.034 161.783C202.048 161.783 206.794 164.237 210.149 168.896L219.888 161.885C214.019 153.734 205.443 149.783 195.034 149.783V161.783ZM210.195 168.96C213.951 174.035 216.128 181.174 216.128 190.947H228.128C228.128 179.456 225.565 169.556 219.842 161.821L210.195 168.96ZM215.254 191.332C215.254 183.434 213.948 176.451 210.876 170.791L200.33 176.516C202.125 179.823 203.254 184.625 203.254 191.332H215.254ZM210.909 170.853C209.253 167.714 206.943 165.096 203.896 163.298C200.86 161.506 197.443 160.736 193.881 160.736V172.736C195.699 172.736 196.926 173.118 197.797 173.632C198.658 174.14 199.519 174.981 200.296 176.454L210.909 170.853ZM193.881 160.736C187.519 160.736 181.989 163.448 177.459 168.141L186.092 176.476C188.735 173.738 191.276 172.736 193.881 172.736V160.736ZM177.384 168.22C173.371 172.529 170.078 177.819 167.428 183.957L178.444 188.714C180.662 183.579 183.261 179.517 186.167 176.397L177.384 168.22ZM167.448 183.911C164.816 189.867 162.833 196.319 161.476 203.244L173.251 205.553C174.456 199.411 176.188 193.822 178.424 188.761L167.448 183.911ZM161.476 203.244C160.133 210.091 159.442 216.567 159.442 222.653H171.442C171.442 217.466 172.032 211.772 173.251 205.553L161.476 203.244ZM159.442 222.653C159.442 230.391 160.673 237.23 163.598 242.755L174.203 237.14C172.517 233.954 171.442 229.263 171.442 222.653H159.442ZM163.663 242.875C167.256 249.303 173.277 252.481 180.622 252.481V240.481C177.207 240.481 175.414 239.303 174.138 237.021L163.663 242.875ZM180.622 252.481C187.003 252.481 192.559 249.92 197.047 245.265L188.409 236.936C185.98 239.455 183.465 240.481 180.622 240.481V252.481ZM196.971 245.343C201.17 241.144 204.569 235.944 207.248 229.882L196.272 225.032C194.082 229.987 191.461 233.883 188.486 236.858L196.971 245.343ZM207.248 229.882C209.873 223.941 211.856 217.562 213.216 210.763L201.449 208.41C200.246 214.422 198.514 219.956 196.272 225.032L207.248 229.882ZM213.22 210.741C214.563 203.894 215.254 197.418 215.254 191.332H203.254C203.254 196.519 202.664 202.213 201.444 208.432L213.22 210.741ZM246.253 254.359V260.359C249.169 260.359 251.662 258.263 252.164 255.391L246.253 254.359ZM233.763 254.359L227.852 253.327C227.548 255.073 228.03 256.864 229.17 258.22C230.31 259.576 231.991 260.359 233.763 260.359V254.359ZM259.128 109.088V103.088C256.212 103.088 253.718 105.184 253.217 108.056L259.128 109.088ZM271.618 109.088L277.528 110.12C277.833 108.375 277.351 106.584 276.211 105.228C275.071 103.872 273.39 103.088 271.618 103.088V109.088ZM246.253 248.359H233.763V260.359H246.253V248.359ZM239.673 255.391L265.038 110.12L253.217 108.056L227.852 253.327L239.673 255.391ZM259.128 115.088H271.618V103.088H259.128V115.088ZM265.707 108.056L240.342 253.327L252.164 255.391L277.528 110.12L265.707 108.056ZM316.932 169.234V175.234C319.858 175.234 322.358 173.123 322.848 170.238L316.932 169.234ZM300.599 169.234V163.234C297.691 163.234 295.201 165.319 294.692 168.182L300.599 169.234ZM290.03 228.61L295.934 229.684C295.935 229.676 295.936 229.669 295.938 229.662L290.03 228.61ZM289.454 233.03L295.429 233.573C295.431 233.558 295.432 233.543 295.433 233.528L289.454 233.03ZM291.183 243.406L286.941 247.649C287.015 247.723 287.091 247.796 287.17 247.866L291.183 243.406ZM301.176 244.752L302.249 250.655C302.419 250.624 302.587 250.586 302.754 250.54L301.176 244.752ZM304.826 243.406L310.8 243.97C311.005 241.799 310.016 239.689 308.217 238.456C306.419 237.224 304.093 237.065 302.143 238.04L304.826 243.406ZM303.866 253.591L306.454 259.004C308.356 258.094 309.641 256.253 309.839 254.154L303.866 253.591ZM280.807 250.708L276.051 254.367L280.807 250.708ZM277.156 235.336L283.126 235.933C283.128 235.915 283.13 235.897 283.131 235.879L277.156 235.336ZM277.732 230.724L271.825 229.672C271.817 229.718 271.809 229.765 271.802 229.812L277.732 230.724ZM288.685 169.234L294.592 170.286C294.904 168.538 294.425 166.742 293.285 165.381C292.145 164.02 290.461 163.234 288.685 163.234V169.234ZM275.619 169.234L269.686 168.338C269.425 170.066 269.931 171.822 271.07 173.147C272.21 174.472 273.871 175.234 275.619 175.234V169.234ZM277.156 159.049V153.049C274.188 153.049 271.666 155.219 271.223 158.154L277.156 159.049ZM290.03 159.049V165.049C292.958 165.049 295.458 162.937 295.946 160.05L290.03 159.049ZM294.45 132.916V126.916C291.522 126.916 289.022 129.029 288.534 131.915L294.45 132.916ZM306.556 132.916L312.479 133.874C312.76 132.138 312.265 130.366 311.125 129.027C309.985 127.688 308.315 126.916 306.556 126.916V132.916ZM302.328 159.049L296.405 158.091C296.125 159.827 296.62 161.599 297.76 162.939C298.9 164.278 300.57 165.049 302.328 165.049V159.049ZM318.662 159.049L324.577 160.054C324.873 158.312 324.386 156.528 323.246 155.178C322.106 153.828 320.429 153.049 318.662 153.049V159.049ZM316.932 163.234H300.599V175.234H316.932V163.234ZM294.692 168.182L284.123 227.559L295.938 229.662L306.506 170.285L294.692 168.182ZM284.127 227.537C283.834 229.15 283.618 230.816 283.475 232.532L295.433 233.528C295.546 232.169 295.715 230.889 295.934 229.684L284.127 227.537ZM283.479 232.487C283.34 234.014 283.262 235.421 283.262 236.681H295.262C295.262 235.891 295.312 234.864 295.429 233.573L283.479 232.487ZM283.262 236.681C283.262 240.35 283.932 244.64 286.941 247.649L295.426 239.164C295.684 239.422 295.63 239.531 295.511 239.116C295.389 238.689 295.262 237.917 295.262 236.681H283.262ZM287.17 247.866C290.068 250.475 293.916 251.136 297.332 251.136V239.136C296.306 239.136 295.663 239.028 295.306 238.928C294.963 238.831 295.011 238.779 295.197 238.947L287.17 247.866ZM297.332 251.136C298.919 251.136 300.567 250.961 302.249 250.655L300.102 238.848C298.966 239.055 298.051 239.136 297.332 239.136V251.136ZM302.754 250.54C304.446 250.079 306.051 249.502 307.51 248.773L302.143 238.04C301.553 238.335 300.723 238.656 299.597 238.963L302.754 250.54ZM298.853 242.843L297.892 253.027L309.839 254.154L310.8 243.97L298.853 242.843ZM301.277 248.178C299.243 249.151 296.816 249.704 293.874 249.704V261.704C298.361 261.704 302.595 260.849 306.454 259.004L301.277 248.178ZM293.874 249.704C288.688 249.704 286.535 248.314 285.563 247.05L276.051 254.367C280.203 259.765 286.761 261.704 293.874 261.704V249.704ZM285.563 247.05C283.887 244.872 282.964 242.22 282.964 238.795H270.964C270.964 244.593 272.603 249.884 276.051 254.367L285.563 247.05ZM282.964 238.795C282.964 238.012 283.013 237.063 283.126 235.933L271.186 234.739C271.042 236.171 270.964 237.528 270.964 238.795H282.964ZM283.131 235.879C283.246 234.614 283.422 233.201 283.663 231.636L271.802 229.812C271.53 231.577 271.322 233.239 271.18 234.793L283.131 235.879ZM283.639 231.776L294.592 170.286L282.778 168.182L271.825 229.672L283.639 231.776ZM288.685 163.234H275.619V175.234H288.685V163.234ZM281.551 170.129L283.089 159.945L271.223 158.154L269.686 168.338L281.551 170.129ZM277.156 165.049H290.03V153.049H277.156V165.049ZM295.946 160.05L300.366 133.916L288.534 131.915L284.114 158.049L295.946 160.05ZM294.45 138.916H306.556V126.916H294.45V138.916ZM300.633 131.958L296.405 158.091L308.251 160.007L312.479 133.874L300.633 131.958ZM302.328 165.049H318.662V153.049H302.328V165.049ZM312.746 158.045L311.017 168.229L322.848 170.238L324.577 160.054L312.746 158.045Z" fill="#4D4D58" mask="url(#path-5-outside-2_626_3793)"/>
<path d="M115.546 83.75H108.946L108.698 56.9549H108.599L98.9724 83.75H92.3729L91.7774 48.6186H97.583L97.3846 76.2573H97.5334L107.209 48.6186H113.214L113.412 76.2573H113.561L122.939 48.6186H128.397L115.546 83.75ZM143.086 66.1843C143.086 66.8459 143.053 67.6398 142.987 68.5661C142.921 69.4923 142.739 70.799 142.441 72.4861H129.49C129.424 72.8831 129.374 73.2801 129.341 73.677C129.308 74.074 129.292 74.4544 129.292 74.8183C129.292 76.2738 129.573 77.4647 130.135 78.391C130.698 79.2841 131.574 79.7307 132.765 79.7307C133.791 79.7307 134.651 79.4165 135.345 78.7879C136.04 78.1263 136.636 77.3655 137.132 76.5054L140.903 78.9368C139.977 80.5577 138.802 81.914 137.38 83.0057C135.957 84.0643 134.221 84.5936 132.17 84.5936C129.59 84.5936 127.588 83.7665 126.166 82.1125C124.743 80.4254 124.032 78.0436 124.032 74.9672C124.032 72.7508 124.313 70.6171 124.876 68.5661C125.438 66.482 126.232 64.6461 127.257 63.0582C128.283 61.4373 129.507 60.1471 130.929 59.1878C132.385 58.1954 133.973 57.6992 135.693 57.6992C137.016 57.6992 138.141 57.9142 139.067 58.3442C140.026 58.7412 140.804 59.3201 141.399 60.081C141.995 60.8418 142.425 61.7515 142.689 62.8101C142.954 63.8356 143.086 64.9603 143.086 66.1843ZM138.223 66.1843C138.223 64.9272 137.992 63.9348 137.529 63.2071C137.099 62.4793 136.388 62.1154 135.395 62.1154C134.667 62.1154 134.006 62.3304 133.41 62.7605C132.848 63.1905 132.335 63.7364 131.872 64.398C131.442 65.0596 131.078 65.7708 130.78 66.5316C130.516 67.2925 130.334 67.9872 130.235 68.6157H137.975C138.075 68.1526 138.141 67.7225 138.174 67.3256C138.207 66.9286 138.223 66.5482 138.223 66.1843ZM149.156 83.75H143.747L150.297 46.2368H155.656L149.156 83.75ZM168.615 63.7529C168.317 63.389 167.937 63.1078 167.474 62.9093C167.044 62.6778 166.465 62.562 165.737 62.562C164.778 62.562 163.918 62.959 163.157 63.7529C162.396 64.5137 161.734 65.4896 161.172 66.6805C160.643 67.8714 160.229 69.1781 159.931 70.6005C159.667 71.9899 159.534 73.2966 159.534 74.5206C159.534 76.1084 159.799 77.3655 160.328 78.2917C160.858 79.1849 161.817 79.6315 163.206 79.6315C163.835 79.6315 164.381 79.5322 164.844 79.3338C165.307 79.1022 165.803 78.7879 166.332 78.391L167.97 82.6583C167.242 83.2538 166.382 83.7169 165.39 84.0477C164.397 84.4116 163.372 84.5936 162.313 84.5936C160.891 84.5936 159.667 84.3454 158.641 83.8492C157.649 83.353 156.822 82.6749 156.16 81.8148C155.499 80.9547 155.002 79.9458 154.672 78.7879C154.374 77.597 154.225 76.3234 154.225 74.9672C154.225 72.9162 154.49 70.8652 155.019 68.8142C155.548 66.7301 156.309 64.8776 157.301 63.2567C158.294 61.6027 159.518 60.2629 160.973 59.2374C162.429 58.2119 164.083 57.6992 165.935 57.6992C167.424 57.6992 168.598 57.9142 169.459 58.3442C170.352 58.7412 171.03 59.1878 171.493 59.684L168.615 63.7529ZM189.195 67.2263C189.195 69.3766 188.914 71.4937 188.352 73.5778C187.822 75.6618 187.045 77.5309 186.019 79.1849C184.994 80.8058 183.737 82.1125 182.248 83.1049C180.793 84.0973 179.155 84.5936 177.336 84.5936C174.789 84.5936 172.804 83.7169 171.381 81.9637C169.992 80.2104 169.297 77.8948 169.297 75.0168C169.297 72.8335 169.562 70.6998 170.091 68.6157C170.654 66.5316 171.447 64.6791 172.473 63.0582C173.532 61.4373 174.789 60.1471 176.244 59.1878C177.7 58.1954 179.354 57.6992 181.206 57.6992C183.753 57.6992 185.722 58.5593 187.111 60.2794C188.5 61.9996 189.195 64.3153 189.195 67.2263ZM183.886 67.5241C183.886 65.9693 183.638 64.7122 183.141 63.7529C182.645 62.7936 181.835 62.3139 180.71 62.3139C179.751 62.3139 178.891 62.7439 178.13 63.604C177.369 64.431 176.724 65.4731 176.195 66.7301C175.698 67.9872 175.301 69.3435 175.004 70.799C174.739 72.2546 174.607 73.5943 174.607 74.8183C174.607 76.3069 174.855 77.5309 175.351 78.4902C175.847 79.4165 176.641 79.8796 177.733 79.8796C178.725 79.8796 179.602 79.4661 180.363 78.6391C181.123 77.8121 181.752 76.7866 182.248 75.5626C182.778 74.3386 183.174 73.0154 183.439 71.5929C183.737 70.1374 183.886 68.7811 183.886 67.5241ZM223.773 63.8025C223.773 64.3649 223.723 65.0099 223.624 65.7377C223.558 66.4324 223.459 67.1436 223.326 67.8714L220.597 83.75H215.139L217.918 67.921C217.984 67.491 218.033 67.0775 218.067 66.6805C218.133 66.2835 218.166 65.8866 218.166 65.4896C218.166 64.6626 218 63.9514 217.67 63.3559C217.339 62.7605 216.694 62.4628 215.734 62.4628C215.205 62.4628 214.659 62.6116 214.097 62.9093C213.568 63.174 213.071 63.5544 212.608 64.0506C212.145 64.5137 211.732 65.0761 211.368 65.7377C211.037 66.3993 210.805 67.1106 210.673 67.8714L207.944 83.75H202.535L205.314 67.921C205.38 67.491 205.43 67.0775 205.463 66.6805C205.529 66.2835 205.562 65.8866 205.562 65.4896C205.562 64.6626 205.38 63.9514 205.016 63.3559C204.686 62.7605 204.04 62.4628 203.081 62.4628C201.824 62.4628 200.716 63.0913 199.757 64.3483C198.797 65.6054 198.136 67.2098 197.772 69.1615L195.241 83.75H189.882L193.207 64.8445C193.24 64.5137 193.306 64.0506 193.405 63.4552C193.504 62.8266 193.604 62.1981 193.703 61.5696C193.802 60.908 193.885 60.3125 193.951 59.7832C194.05 59.2209 194.116 58.8074 194.149 58.5427H199.26C199.194 59.0059 199.111 59.6344 199.012 60.4283C198.913 61.1892 198.814 61.9169 198.715 62.6116H198.814C199.475 61.2222 200.385 60.0644 201.543 59.1382C202.734 58.1788 204.107 57.6992 205.661 57.6992C206.588 57.6992 207.382 57.848 208.043 58.1458C208.705 58.4104 209.234 58.7908 209.631 59.287C210.028 59.7832 210.326 60.3621 210.524 61.0238C210.723 61.6854 210.855 62.3801 210.921 63.1078C211.252 62.3801 211.649 61.7019 212.112 61.0734C212.608 60.4118 213.154 59.8329 213.75 59.3367C214.378 58.8405 215.073 58.4435 215.834 58.1458C216.594 57.848 217.438 57.6992 218.364 57.6992C219.357 57.6992 220.2 57.8811 220.895 58.245C221.59 58.5758 222.135 59.0389 222.532 59.6344C222.962 60.1967 223.277 60.8418 223.475 61.5696C223.674 62.2974 223.773 63.0417 223.773 63.8025ZM244.712 66.1843C244.712 66.8459 244.679 67.6398 244.612 68.5661C244.546 69.4923 244.364 70.799 244.067 72.4861H231.116C231.049 72.8831 231 73.2801 230.967 73.677C230.934 74.074 230.917 74.4544 230.917 74.8183C230.917 76.2738 231.198 77.4647 231.761 78.391C232.323 79.2841 233.2 79.7307 234.391 79.7307C235.416 79.7307 236.276 79.4165 236.971 78.7879C237.666 78.1263 238.261 77.3655 238.757 76.5054L242.528 78.9368C241.602 80.5577 240.428 81.914 239.005 83.0057C237.583 84.0643 235.846 84.5936 233.795 84.5936C231.215 84.5936 229.213 83.7665 227.791 82.1125C226.369 80.4254 225.657 78.0436 225.657 74.9672C225.657 72.7508 225.939 70.6171 226.501 68.5661C227.063 66.482 227.857 64.6461 228.883 63.0582C229.908 61.4373 231.132 60.1471 232.555 59.1878C234.01 58.1954 235.598 57.6992 237.318 57.6992C238.641 57.6992 239.766 57.9142 240.692 58.3442C241.652 58.7412 242.429 59.3201 243.025 60.081C243.62 60.8418 244.05 61.7515 244.315 62.8101C244.579 63.8356 244.712 64.9603 244.712 66.1843ZM239.849 66.1843C239.849 64.9272 239.617 63.9348 239.154 63.2071C238.724 62.4793 238.013 62.1154 237.02 62.1154C236.293 62.1154 235.631 62.3304 235.036 62.7605C234.473 63.1905 233.961 63.7364 233.497 64.398C233.067 65.0596 232.703 65.7708 232.406 66.5316C232.141 67.2925 231.959 67.9872 231.86 68.6157H239.601C239.7 68.1526 239.766 67.7225 239.799 67.3256C239.832 66.9286 239.849 66.5482 239.849 66.1843ZM266.328 62.8597H262.11L259.827 75.7611C259.761 76.0588 259.712 76.3896 259.678 76.7535C259.645 77.0843 259.629 77.3655 259.629 77.597C259.629 78.9203 260.324 79.5819 261.713 79.5819C261.978 79.5819 262.275 79.5488 262.606 79.4826C262.937 79.4165 263.235 79.3338 263.499 79.2345L262.854 83.5515C262.424 83.75 261.928 83.8989 261.366 83.9981C260.803 84.0973 260.241 84.147 259.678 84.147C257.892 84.147 256.536 83.7004 255.61 82.8072C254.716 81.881 254.27 80.6074 254.27 78.9864C254.27 78.391 254.336 77.7128 254.468 76.952L256.949 62.8597H253.575L254.319 58.5427H257.644L258.785 51.9928H263.995L262.854 58.5427H267.122L266.328 62.8597ZM285.151 67.2263C285.151 69.3766 284.87 71.4937 284.307 73.5778C283.778 75.6618 283.001 77.5309 281.975 79.1849C280.95 80.8058 279.693 82.1125 278.204 83.1049C276.748 84.0973 275.111 84.5936 273.292 84.5936C270.744 84.5936 268.76 83.7169 267.337 81.9637C265.948 80.2104 265.253 77.8948 265.253 75.0168C265.253 72.8335 265.518 70.6998 266.047 68.6157C266.609 66.5316 267.403 64.6791 268.429 63.0582C269.487 61.4373 270.744 60.1471 272.2 59.1878C273.655 58.1954 275.309 57.6992 277.162 57.6992C279.709 57.6992 281.677 58.5593 283.067 60.2794C284.456 61.9996 285.151 64.3153 285.151 67.2263ZM279.841 67.5241C279.841 65.9693 279.593 64.7122 279.097 63.7529C278.601 62.7936 277.791 62.3139 276.666 62.3139C275.706 62.3139 274.846 62.7439 274.086 63.604C273.325 64.431 272.68 65.4731 272.15 66.7301C271.654 67.9872 271.257 69.3435 270.959 70.799C270.695 72.2546 270.562 73.5943 270.562 74.8183C270.562 76.3069 270.811 77.5309 271.307 78.4902C271.803 79.4165 272.597 79.8796 273.689 79.8796C274.681 79.8796 275.558 79.4661 276.318 78.6391C277.079 77.8121 277.708 76.7866 278.204 75.5626C278.733 74.3386 279.13 73.0154 279.395 71.5929C279.693 70.1374 279.841 68.7811 279.841 67.5241Z" fill="white"/>
</g>
<defs>
<clipPath id="clip0_626_3793">
<rect width="638" height="357" fill="white"/>
</clipPath>
</defs>
</svg>
